gui_paths_subject3_walking1_full_v3
version=1
nRows=9
nColumns=56
inDegrees=no
endheader
time	pelvis_tilt	pelvis_list	pelvis_rotation	pelvis_tx	pelvis_ty	pelvis_tz	hip_flexion_r	hip_adduction_r	hip_rotation_r	knee_angle_r	ankle_angle_r	subtalar_angle_r	mtp_angle_r	hip_flexion_l	hip_adduction_l	hip_rotation_l	knee_angle_l	ankle_angle_l	subtalar_angle_l	mtp_angle_l	lumbar_extension	lumbar_bending	lumbar_rotation	arm_flex_r	arm_add_r	arm_rot_r	elbow_flex_r	pro_sup_r	wrist_flex_r	wrist_dev_r	arm_flex_l	arm_add_l	arm_rot_l	elbow_flex_l	pro_sup_l	wrist_flex_l	wrist_dev_l	knee_angle_r_beta	knee_angle_l_beta	/forceset/M0_r/activation	/forceset/M1_r/activation	/forceset/M2_r/activation	/forceset/M3_r/activation	/forceset/M4_r/activation	/forceset/M5_r/activation	/forceset/M6_r/activation	/forceset/M7_r/activation	/forceset/M0_l/activation	/forceset/M1_l/activation	/forceset/M2_l/activation	/forceset/M3_l/activation	/forceset/M4_l/activation	/forceset/M5_l/activation	/forceset/M6_l/activation	/forceset/M7_l/activation
0.34000000	0.05997044	-0.12564830	0.00794701	0.31359479	0.92518776	-0.24533383	-0.09145684	0.21981548	-0.16249228	0.15997625	0.16960851	0.01861229	-0.00040485	0.46570755	-0.23376741	0.03736406	1.13818650	0.06745371	0.02034670	-0.00088755	-0.15534017	0.14492047	0.03564577	-0.00695294	-0.25476376	-0.08708054	0.79405324	1.35497277	-0.00009351	0.00046255	-0.13114173	-0.14982030	-0.15814628	0.51480085	1.48144724	-0.00013359	0.00030875	0.15997625	1.13818650	0.69205555	0.00000002	0.60699783	0.37612393	0.00000001	0.95382079	0.36992486	0.99999994	0.08024996	0.14115609	0.03691190	0.00000025	0.00000106	0.02484400	0.00000056	0.02209268
0.35000000	0.05860629	-0.11913353	0.00317921	0.32437991	0.92440801	-0.24451266	-0.10856271	0.21358893	-0.15698722	0.15259640	0.17663167	0.01861229	-0.00040485	0.48346324	-0.22616371	0.02795227	1.09525888	0.07485342	0.02034670	-0.00088755	-0.15596848	0.13650603	0.04839472	0.00293349	-0.25726178	-0.09427931	0.81376481	1.35569813	-0.00009351	0.00046255	-0.14057200	-0.14774294	-0.16878403	0.50204709	1.48145967	-0.00013359	0.00030875	0.15259640	1.09525888	0.71879382	0.00000000	0.64898847	0.38016148	0.00000000	1.00000000	0.38141596	1.00000000	0.07671462	0.13781438	0.01499973	0.00000052	0.00000208	0.00275840	0.00000136	0.01274102
0.36000000	0.05748107	-0.11253419	-0.00174266	0.33517136	0.92345967	-0.24373517	-0.12584711	0.20702740	-0.15173465	0.14539790	0.18397268	0.01861229	-0.00040485	0.49823248	-0.21853198	0.01687590	1.04727439	0.08103463	0.02034670	-0.00088755	-0.15694773	0.12809788	0.06091835	0.01268002	-0.25970569	-0.10163664	0.83302328	1.35640975	-0.00009351	0.00046255	-0.15008012	-0.14604172	-0.17877691	0.49042889	1.48147696	-0.00013359	0.00030875	0.14539790	1.04727439	0.70618739	0.00000000	0.63892497	0.37564906	0.00000000	1.00000000	0.40759785	1.00000000	0.08081006	0.13090251	0.00000000	0.00000000	0.00218559	0.00000000	0.00000000	0.01145405
0.37000000	0.05659236	-0.10585347	-0.00670114	0.34598547	0.92233662	-0.24300471	-0.14332712	0.20014682	-0.14672722	0.13828064	0.19147159	0.01861229	-0.00040485	0.51005994	-0.21072419	0.00437358	0.99468971	0.08586084	0.02034670	-0.00088755	-0.15823769	0.11968173	0.07266224	0.02250580	-0.26217893	-0.10815047	0.85156761	1.35725214	-0.00009351	0.00046255	-0.15984955	-0.14471622	-0.18780602	0.47987964	1.48126236	-0.00013359	0.00030875	0.13828064	0.99468971	0.70179966	0.00000000	0.63663453	0.37457314	0.00000000	1.00000000	0.43259686	1.00000000	0.10622752	0.12691206	0.00000000	0.00000000	0.01422301	0.00000000	0.00000000	0.00291193
0.38000000	0.05620790	-0.09864336	-0.01172697	0.35685691	0.92106587	-0.24232193	-0.16143102	0.19245454	-0.14173781	0.13100748	0.19910431	0.01861229	-0.00040485	0.51839137	-0.20218988	-0.00974434	0.93758971	0.08923265	0.02034670	-0.00088755	-0.16006145	0.11072400	0.08371692	0.03217978	-0.26456028	-0.11399122	0.86949509	1.35830257	-0.00009351	0.00046255	-0.16968410	-0.14382560	-0.19554362	0.47002978	1.48045319	-0.00013359	0.00030875	0.13100748	0.93758971	0.70678198	0.00000000	0.64319803	0.37746425	0.00000000	1.00000000	0.45632873	1.00000000	0.14334061	0.13584776	0.00000000	0.00000000	0.03239731	0.00000000	0.00344390	0.00000000
0.39000000	0.05624838	-0.09103953	-0.01662096	0.36780233	0.91963861	-0.24171382	-0.18004068	0.18410567	-0.13680134	0.12357471	0.20667447	0.01861229	-0.00040485	0.52353464	-0.19267889	-0.02455408	0.87668620	0.09144926	0.02034670	-0.00088755	-0.16227971	0.10144471	0.09374198	0.04174267	-0.26690883	-0.11882916	0.88669256	1.35964635	-0.00009351	0.00046255	-0.17949270	-0.14327322	-0.20182405	0.46045917	1.47893468	-0.00013359	0.00030875	0.12357471	0.87668620	0.72107286	0.00000000	0.65867577	0.38446517	0.00000000	1.00000000	0.47892511	1.00000000	0.19207064	0.16008365	0.00000000	0.00000000	0.05739710	0.00000000	0.01106212	0.00000000
0.40000000	0.05613767	-0.08379101	-0.02099674	0.37882180	0.91800146	-0.24122682	-0.19829088	0.17593328	-0.13225957	0.11631270	0.21392075	0.01861229	-0.00040485	0.52678101	-0.18237394	-0.03812547	0.81325033	0.09313668	0.02034670	-0.00088755	-0.16422462	0.09283275	0.10200332	0.05148913	-0.26947525	-0.12175901	0.90278895	1.36137055	-0.00009351	0.00046255	-0.18938231	-0.14280558	-0.20681884	0.45085924	1.47693730	-0.00013359	0.00030875	0.11631270	0.81325033	0.23814321	0.00000000	0.00000000	0.26633199	0.00000000	0.50499604	0.67271874	1.00000000	0.25123565	0.20156288	0.00000000	0.00000000	0.08785930	0.00000000	0.02120603	0.00000000
0.41000000	0.05576355	-0.07691608	-0.02479803	0.38993923	0.91616037	-0.24088240	-0.21594181	0.16792015	-0.12825452	0.10950036	0.22096752	0.01861229	-0.00040485	0.52825998	-0.17106327	-0.04956356	0.74770457	0.09471783	0.02034670	-0.00088755	-0.16574210	0.08496672	0.10870308	0.06117858	-0.27224116	-0.12319975	0.91782754	1.36345053	-0.00009351	0.00046255	-0.19913593	-0.14235714	-0.21063072	0.44093201	1.47484003	-0.00013359	0.00030875	0.10950036	0.74770457	0.24853284	0.00000000	0.00000000	0.27518566	0.00000000	0.48719657	0.69979077	1.00000000	0.31922154	0.25783899	0.00000000	0.00000000	0.12286790	0.00000000	0.03357559	0.00000000
0.42000000	0.05555441	-0.06992074	-0.02819472	0.40119190	0.91417980	-0.24067996	-0.23341875	0.15944249	-0.12480254	0.10337873	0.22812003	0.01861229	-0.00040485	0.52705306	-0.15829592	-0.05873544	0.67993185	0.09645721	0.02034670	-0.00088755	-0.16730034	0.07726656	0.11454853	0.07036279	-0.27503687	-0.12415171	0.93206985	1.36577192	-0.00009351	0.00046255	-0.20836765	-0.14203805	-0.21302731	0.43047630	1.47299514	-0.00013359	0.00030875	0.10337873	0.67993185	0.25838082	0.00000000	0.00000000	0.28532425	0.00000000	0.46591361	0.72802130	1.00000000	0.39268716	0.32359228	0.00000000	0.00000000	0.16070078	0.00000000	0.04750374	0.00000000
